<?xml version="1.0" encoding="UTF-8"?>
<svg width="29px" height="44px" version="1.1" xmlns="http://www.w3.org/2000/svg" xmlns:xlink="http://www.w3.org/1999/xlink">
    <title>数字0</title>
    <g id="页面-1" stroke="none" stroke-width="1" fill="none" fill-rule="evenodd">
        <g id="数字0" fill="#C5D3FF" fill-rule="nonzero">
            <path d="M5.30766457,38.1272639 L1.93833234,41.0959187 L0.923393453,40.0395876 C0.41012907,39.4451943 0.0955477188,38.8524568 0.0425655742,38.2580636 C0.0260086406,38.0610363 0.0674009531,37.7961256 0.0508440195,37.600754 L1.22804069,24.6698034 L4.03609349,22.0968588 L6.50472956,24.6698034 L5.30766457,38.1272639 Z M6.96666747,19.3931146 L4.03609353,22.0985145 L1.68832297,19.3931146 L2.66352526,7.91586108 C2.79266921,7.12278484 2.81750455,6.6625026 2.86055254,6.39759196 C2.94002573,5.80485439 3.22977175,5.3412608 3.78277268,4.88097857 L5.55767399,3.29813748 L8.11902876,6.20056469 L6.96666747,19.3931146 Z M19.1459342,38.7216571 L21.9953792,41.8873393 L20.5284365,43.2085811 C19.9207977,43.7996629 19.2121618,44.0000017 17.9588033,44.0000017 L6.34909455,44.0000017 C5.09573608,44.0000017 4.34736354,43.735091 3.83906626,43.2085812 L2.66683669,41.8873394 L6.21663926,38.7216571 L19.1459342,38.7216571 Z M9.09588677,5.2783445 L6.34081607,2.44214498 L7.61073143,1.12090318 C8.39884061,0.329482613 9.16211441,0 10.1505622,0 L22.2222089,0 C23.1460848,0 24.0434696,0.46193791 24.6295844,1.12090314 L25.6627359,2.37591729 L22.2222089,5.2783445 L9.09588677,5.2783445 Z M21.4125758,24.6698034 L24.3464611,22.0322868 L26.6892646,24.6698034 L25.7090952,36.0824849 C25.6528017,36.9401331 25.5667058,37.4682987 25.5832627,37.6669816 C25.5037895,38.2580635 25.2074207,38.6554295 24.5948148,39.1819394 L22.6824911,40.6985528 L20.2751157,38.0610362 L21.4125758,24.6698034 Z M23.0947584,6.20056469 L26.5286626,3.23190983 L27.3349843,4.15578569 C27.9210991,4.81475092 28.2356805,5.40914417 28.2936297,6.06810939 C28.3168093,6.33302003 28.339989,6.596275 28.2969411,6.85952992 L27.2174302,19.3931146 L24.2156615,22.0339426 L21.9390857,19.3931146 L23.0947584,6.20056469 Z" id="形状"></path>
        </g>
    </g>
</svg>