<?xml version="1.0" encoding="UTF-8"?>
<svg width="29px" height="44px" version="1.1" xmlns="http://www.w3.org/2000/svg" xmlns:xlink="http://www.w3.org/1999/xlink">
    <title>数字2</title>
    <g id="页面-1" stroke="none" stroke-width="1" fill="none" fill-rule="evenodd">
        <g id="数字2" fill="#C5D3FF" fill-rule="nonzero">
            <path d="M5.71208503,38.0610361 L0.021473375,43.1423533 L1.41722131,27.4430866 C1.45033513,27.0473763 1.48179329,26.6500103 1.58444614,26.3205277 C1.68875472,25.9910451 1.79637464,25.7277902 1.97684502,25.5274515 C1.97684502,25.5274515 2.34440852,25.1979689 2.95039164,24.6035756 L4.71370307,22.8899349 L6.89424875,25.1979689 L5.71208503,38.0610361 Z M20.6099971,38.721657 L23.0190282,41.3608293 L20.1497149,44.0000015 L0.754944695,44.0000015 L6.69225442,38.721657 L20.6099971,38.721657 Z M22.070317,23.7475831 C21.3418128,24.472776 20.7656321,24.671459 19.2490187,24.671459 L7.90422059,24.671459 L5.50181221,22.0985144 L7.37936637,20.1861907 C7.62109734,19.9229358 7.93236735,19.7242528 8.25026009,19.5917975 C8.56815287,19.4609979 8.82644073,19.3947702 9.15592335,19.3947702 L10.2122545,19.3947702 L21.624936,19.3947702 L24.0256887,21.9693705 L22.070317,23.7475831 Z M8.84630905,5.2783445 L6.44390068,2.70374423 L9.2403636,0 L22.6978241,0 C24.0157545,0 24.6399502,0.329482613 25.3734216,1.18713079 L26.2575608,2.24346195 L22.8948514,5.2783445 L8.84630905,5.2783445 Z M23.5654064,6.134337 L26.9926878,3.09945449 L28.1632617,4.41904061 C28.3073069,4.55149595 28.4679089,4.88097852 28.6401009,5.34291648 C28.7228855,5.54159946 28.7410981,5.74028245 28.757655,5.93730973 C28.7808346,6.20056469 28.7559993,6.6625026 28.741098,7.25689585 L27.8139108,17.0188529 C27.7195364,18.2076394 27.4976737,18.6695773 26.648304,19.5255698 L24.8187649,21.2408662 L22.4229793,18.7341493 L23.5654064,6.134337 Z" id="形状"></path>
        </g>
    </g>
</svg>