<?xml version="1.0" encoding="UTF-8"?>
<svg width="29px" height="44px" version="1.1" xmlns="http://www.w3.org/2000/svg" xmlns:xlink="http://www.w3.org/1999/xlink">
    <title>数字3</title>
    <g id="页面-1" stroke="none" stroke-width="1" fill="none" fill-rule="evenodd">
        <g id="数字3" fill="#C5D3FF" fill-rule="nonzero">
            <path d="M17.0708914,38.7216571 L19.7779471,41.7565396 L18.3755764,43.0761258 C17.642105,43.7334353 16.8076365,44.0000017 15.2910231,44.0000017 L2.42795579,44.0000017 L0.0255474141,41.4270571 L3.35017594,38.7216571 L17.0708914,38.7216571 Z M18.7447956,19.3931146 L21.2796592,21.9677148 L18.2828576,24.6698034 L4.6283698,24.6698034 L2.0156886,21.9660592 L5.08865204,19.3914589 L18.7447956,19.3914589 L18.7447956,19.3931146 Z M6.29565114,5.2783445 L3.82867079,2.70374423 L6.75758909,0 L19.7531117,0 C20.3475049,0 20.7481823,0.0645719766 20.8806376,0.0645719766 C21.3491983,0.130799625 22.0495558,0.592737578 22.6340149,1.25501415 L23.5181542,2.30968964 L20.0180223,5.2783445 L6.29565114,5.2783445 Z M19.0775895,25.4612239 L22.0677684,22.691252 L23.2284081,23.8783829 C23.8857176,24.6035757 24.1291043,25.1317413 24.1936762,25.8585899 C24.2234787,26.1880725 24.2516254,26.5158994 24.2135445,26.8470377 L23.2681447,37.1388161 C23.1737703,38.3259469 22.890647,38.8541125 21.9750496,39.7117607 L20.4418793,41.0313468 L17.9517192,38.1934916 L19.0775895,25.4612239 Z M20.8061315,6.0018817 L24.2450027,3.09945449 L25.1175522,4.02333035 C25.6324722,4.6177236 25.9470536,5.21211685 26.0050028,5.87108208 C26.0281825,6.13433704 26.0033471,6.59627495 25.9387752,7.38769548 L25.0612587,16.9526253 C24.973507,18.2059838 24.7499887,18.6679217 24.0214844,19.3931146 L22.0727355,21.2392106 L19.6090665,18.7324936 L20.8061315,6.0018817 Z" id="形状"></path>
        </g>
    </g>
</svg>