<?xml version="1.0" encoding="UTF-8"?>
<svg width="29px" height="44px" version="1.1" xmlns="http://www.w3.org/2000/svg" xmlns:xlink="http://www.w3.org/1999/xlink">
    <title>数字4</title>
    <g id="页面-1" stroke="none" stroke-width="1" fill="none" fill-rule="evenodd">
        <g id="数字4" fill="#C5D3FF" fill-rule="nonzero">
            <path d="M5.09758214,18.8281411 L2.34798816,21.4169496 L1.13316461,20.1225454 C0.494895027,19.4761553 0.108360227,18.7631773 0.0515169102,18.1167872 C0.0287795664,17.8601801 0.053141,17.4054333 0.0612614922,16.7574191 L1.35891392,2.71711206 L4.22706685,0 L6.53490681,2.71711206 L5.09758214,18.8281411 Z M18.9949688,19.4095674 L21.3629003,22.0633398 L18.2186511,24.5871844 L7.54347026,24.5871844 C6.9604199,24.5871844 6.57226105,24.5871844 6.37249727,24.5222206 C5.791071,24.5222206 5.05048341,24.1990256 4.69805462,23.8758305 L3.057718,22.1299277 L5.99083478,19.4111915 L18.9949688,19.4111915 L18.9949688,19.4095674 Z M22.9252804,41.4111915 L20.1107226,44 L17.7492875,41.4111915 L19.1914844,25.3618781 L21.9524471,22.9029972 L24.3674774,25.3618781 L22.9252804,41.4111915 Z M24.8969325,18.8281411 L22.0823747,21.4169496 L19.7794071,18.7631773 L21.1631366,2.78207587 L24.0264172,0 L26.3407536,2.78207587 L24.8969325,18.8281411 Z" id="形状"></path>
        </g>
    </g>
</svg>