<?xml version="1.0" encoding="UTF-8"?>
<svg width="29px" height="44px" version="1.1" xmlns="http://www.w3.org/2000/svg" xmlns:xlink="http://www.w3.org/1999/xlink">
    <title>数字5</title>
    <g id="页面-1" stroke="none" stroke-width="1" fill="none" fill-rule="evenodd">
        <g id="数字5" fill="#C5D3FF" fill-rule="nonzero">
            <path d="M5.13970737,18.7324937 L2.32337613,21.2392106 L1.08160748,19.8550525 C0.429265031,19.1960873 0.108060863,18.5354664 0.0451446016,17.8119292 C0.0219649375,17.5470185 -0.00618182813,17.2175359 0.0252763242,16.82017 L1.45910518,0.791420523 L6.26226623,5.93565401 L5.13970737,18.7324937 Z M17.3090399,38.7216571 L20.0823232,41.7565396 L18.7395574,43.0098981 C17.9514482,43.8013186 17.2428123,44.0000017 15.7261989,44.0000017 L2.92935921,44.0000017 L0.462378855,41.4270571 L3.39129712,38.7216571 L17.3090399,38.7216571 Z M7.32522016,5.27834454 L2.44424159,0 L21.7711285,0 L24.2546657,2.77162759 L21.3091905,5.27834454 L7.32522016,5.27834454 Z M17.5987859,19.3931146 C19.181627,19.3931146 19.3918998,19.5239142 20.5558509,20.780584 L21.7214578,22.0339425 L18.5872338,24.6698034 L7.9014008,24.6698034 C5.8566218,24.6698034 5.37647125,24.4727761 4.28868193,23.3502173 L3.1230751,22.0968588 L6.1844487,19.3914589 L17.5987859,19.3914589 L17.5987859,19.3931146 Z M19.5028311,25.3304243 L22.4433392,22.7574797 L23.7463684,24.0770658 C24.2546657,24.6035757 24.585804,25.3966519 24.6387861,25.9893895 C24.6669329,26.3188721 24.6470646,26.8470377 24.6338191,27.441431 L23.829153,36.3457398 C23.7033204,37.9285809 23.3225114,38.8541125 22.7099055,39.3806224 L20.8753994,41.0296911 L18.3902064,38.2580635 L19.5028311,25.3304243 Z" id="形状"></path>
        </g>
    </g>
</svg>