<?xml version="1.0" encoding="UTF-8"?>
<svg width="29px" height="44px" version="1.1" xmlns="http://www.w3.org/2000/svg" xmlns:xlink="http://www.w3.org/1999/xlink">
    <title>数字6</title>
    <g id="页面-1" stroke="none" stroke-width="1" fill="none" fill-rule="evenodd">
        <g id="数字6" fill="#C5D3FF" fill-rule="nonzero">
            <path d="M5.25103648,38.0610362 L2.00422544,40.8972358 L0.831995871,39.5776496 C0.318731488,38.9865678 0.0803119453,38.5229741 0.0339525742,37.9948085 C0.0107729102,37.7298979 0.0356082461,37.2696157 0.0670663984,36.8722497 L1.0604813,25.5920235 L4.11026503,22.755824 L6.36862823,25.1963132 L5.25103648,38.0610362 Z M6.99116825,18.7324937 L4.17649268,21.2392106 L1.71282371,18.7324937 L2.68140323,7.18901249 C2.83041546,5.86942636 3.04731105,5.34126076 3.96787553,4.54984024 L5.56065073,3.16402646 L8.11207134,5.93565405 L6.99116825,18.7324937 Z M19.1621565,38.7216571 L21.8741792,41.8227673 L20.7731443,42.8112152 C19.6721094,43.8013187 19.0959288,44.0000017 17.2481771,44.0000017 L7.22130939,44.0000017 C5.04407505,44.0000017 4.70300261,43.8675463 3.75429141,42.8112152 L2.81054727,41.8227673 L6.23286159,38.7216571 L19.1621565,38.7216571 Z M19.5827021,19.3931146 C20.9022883,19.3931146 21.3079327,19.5239142 22.1871048,20.5156734 L23.4404633,22.0339425 L20.4386946,24.6698034 L7.44317204,24.6698034 L4.96956896,22.0322868 L7.90511,19.3914588 L19.5827021,19.3914588 L19.5827021,19.3931146 Z M9.04588141,5.2783445 L6.3620055,2.50671695 L7.883586,1.0563312 C8.7395785,0.263254965 9.37536402,0 10.9582051,0 L23.5580174,0 L26.1574531,2.5729446 L23.0960795,5.2783445 L9.04588141,5.2783445 Z M21.3542921,25.3304243 L24.1755904,22.889935 L25.6988265,24.4727761 C26.2071238,24.999286 26.3677259,25.3304243 26.4190523,25.9231619 C26.4538219,26.3188721 26.4571333,27.1119484 26.3875942,27.8354856 L25.6325989,36.5427672 C25.4405387,38.1272639 25.1690053,38.7862292 24.2534079,39.6438774 L22.7318274,41.0959188 L20.1688169,38.1918359 L21.3542921,25.3304243 Z" id="形状"></path>
        </g>
    </g>
</svg>