<?xml version="1.0" encoding="UTF-8"?>
<svg width="29px" height="44px" version="1.1" xmlns="http://www.w3.org/2000/svg" xmlns:xlink="http://www.w3.org/1999/xlink">
    <title>数字8</title>
    <g id="页面-1" stroke="none" stroke-width="1" fill="none" fill-rule="evenodd">
        <g id="数字8" fill="#C5D3FF" fill-rule="nonzero">
            <path d="M5.197042,38.2580635 L1.94360818,41.0296911 L0.690249699,39.511422 C0.32599759,39.1157117 0.0809552305,38.5875461 0.0296288008,37.9948086 C0.00644913672,37.7298979 0.0445300195,37.402071 0.0809552305,37.0709327 L0.925357898,27.1102926 C1.04291198,26.1864168 1.30782266,25.4595682 1.85585654,24.934714 L4.11256407,22.8237074 L6.35933745,25.1317413 L5.197042,38.2580635 Z M6.92558389,18.7987213 L4.17051323,21.2392106 L2.86251694,19.8550525 C2.28136923,19.2623149 1.88400326,18.4692387 1.83102111,17.8765011 C1.80287435,17.5470185 1.8343325,17.1513082 1.85916788,16.6877146 L2.65721118,7.71717805 C2.74496282,6.46381957 3.02808606,5.93730968 3.9370607,5.01343382 L5.56957255,3.29813748 L8.05973257,6.134337 L6.92558389,18.7987213 Z M19.35486,38.7216571 L22.0023107,41.8227673 L20.6545778,43.0098982 C19.7406361,43.8675464 19.3548599,44.0000017 17.6412193,44.0000017 L6.62424804,44.0000017 C4.9751793,44.0000017 4.29800147,43.8013187 3.6357249,43.0098982 L2.61416323,41.8873393 L6.1639658,38.7216571 L19.35486,38.7216571 Z M21.0933361,19.3931146 L23.5073343,22.0985145 L20.5668262,24.6698034 L7.43884827,24.6698034 L4.97021224,22.0968588 L7.90078618,19.3914589 L21.0933361,19.3914589 L21.0933361,19.3931146 Z M9.04155764,5.2783445 L6.42390938,2.50671695 L7.75342966,1.12090318 C8.53657174,0.263254965 9.10778529,0 10.2286885,0 L22.1678799,0 C23.2242111,0 23.8401283,0.263254965 24.5090277,1.12090314 L25.7474849,2.44214493 L22.3003352,5.2783445 L9.04155764,5.2783445 Z M21.3002975,25.5274516 L24.2358386,22.889935 L25.68788,24.4065484 C26.1233269,24.8684863 26.3733363,25.4612239 26.4312855,26.1218448 C26.466055,26.5158994 26.4345969,26.9132653 26.4081058,27.3752032 L25.5471462,37.1371603 C25.527278,37.6653259 25.4295922,38.0610362 25.3799214,38.2580635 C25.2822356,38.6537737 25.0487831,38.9849121 24.3749167,39.5776496 L22.7258479,41.0959187 L20.1694603,38.2580635 L21.3002975,25.5274516 Z M23.0288395,6.06810935 L26.4097615,3.23190983 L27.5074849,4.48526826 C27.9495546,5.01343386 28.1929412,5.54159942 28.2393006,6.06810935 C28.2674474,6.39759196 28.2310221,6.72707458 28.199564,7.12444051 L27.3932423,16.7539423 C27.2078048,18.403011 26.8750108,19.1298596 25.956102,19.9212802 L24.3682939,21.3716659 L21.8996579,18.7987213 L23.0288395,6.06810935 Z" id="形状"></path>
        </g>
    </g>
</svg>