<?xml version="1.0" encoding="UTF-8"?>
<svg width="29px" height="44px" version="1.1" xmlns="http://www.w3.org/2000/svg" xmlns:xlink="http://www.w3.org/1999/xlink">
    <title>数字9</title>
    <g id="页面-1" stroke="none" stroke-width="1" fill="none" fill-rule="evenodd">
        <g id="数字9" fill="#C5D3FF" fill-rule="nonzero">
            <path d="M5.11496412,18.6679217 L2.35989346,21.1084109 L0.775396703,19.5901418 C0.267099422,19.0652876 0.0998745859,18.6679217 0.0535152148,18.1397561 C0.0137786172,17.6794738 0.0104672305,16.8863976 0.0783505937,16.1612047 L0.833345906,7.45392312 C1.02540612,5.87108204 1.29693953,5.21211685 2.21253691,4.35281292 L3.73411741,2.90242717 L6.29547218,5.80485439 L5.11496412,18.6679217 Z M17.4233748,38.7216571 L20.0459901,41.5578567 L18.5840145,42.9436704 C17.7346448,43.8013186 17.0922365,44.0000017 15.5093954,44.0000017 L2.91123873,44.0000017 L0.311803078,41.4270571 L3.37317668,38.7216571 L17.4233748,38.7216571 Z M6.89317681,24.6698034 C5.57359069,24.6698034 5.15966782,24.4727761 4.28215133,23.4826726 L3.02879285,21.9660592 L6.0355286,19.3914589 L19.0310512,19.3914589 L21.4996872,21.9660592 L18.5691133,24.6698034 L6.89317681,24.6698034 Z M7.30709968,5.2783445 L4.60004407,2.24180627 L5.69611182,1.18547511 C6.79549101,0.197027273 7.30709968,0 9.21942334,0 L19.2462911,0 C21.4218697,0 21.7645979,0.130799625 22.7133091,1.18713083 L23.663676,2.24346199 L20.2347389,5.2783445 L7.30709968,5.2783445 Z M19.483055,25.3304243 L22.4169403,22.691252 L24.7597438,25.3304243 L23.7845415,36.8093335 C23.642152,38.1934916 23.4186336,38.6554295 22.4997249,39.4468501 L20.9119167,40.8988915 L18.3555291,38.062692 L19.483055,25.3304243 Z M21.216564,5.93730973 L24.463375,3.09945449 L25.6405717,4.48526826 C26.148869,5.01343386 26.3922556,5.54159942 26.4319922,6.00188166 C26.4617946,6.33301995 26.4253694,6.66250256 26.3988784,7.12444051 L25.3955293,18.2705557 L22.3623025,21.3054382 L20.0973165,18.7987213 L21.216564,5.93730973 Z" id="形状"></path>
        </g>
    </g>
</svg>