<?xml version="1.0" encoding="UTF-8"?>
<svg width="850px" height="115px" version="1.1" xmlns="http://www.w3.org/2000/svg" xmlns:xlink="http://www.w3.org/1999/xlink">
    <title>时间区域块</title>
    <defs>
        <path d="M136.484051,5.90204586 L139.480507,10.9791933 C141.638697,14.6359965 145.568727,16.8799893 149.814901,16.8799893 L695.301857,16.8799893 C698.907684,16.8799893 702.322378,15.2585379 704.601319,12.4641839 L711.16436,4.4168232 C713.443775,1.6218874 716.859388,0.000373835643 720.465965,0.00101805214 L835.960062,0.0216479165 C837.306837,0.0218884811 838.563082,0.699845569 839.302521,1.82547184 L849.343174,17.1100609 C849.771681,17.7623647 850,18.5257764 850,19.3062369 L850,113.668647 L850,113.668647 L0,113.668647 L0,19.3333365 C-4.98263155e-15,18.5359617 0.238313462,17.756783 0.684346574,17.0958284 L11.0171612,1.78413745 C11.760672,0.682365297 13.0029085,0.0218880337 14.332085,0.0216455871 L126.147468,0.00125006353 C130.394423,0.000475403811 134.325464,2.24456999 136.484051,5.90204586 Z" id="path-1"></path>
        <filter x="-0.7%" y="-5.3%" width="101.4%" height="110.6%" filterUnits="objectBoundingBox" id="filter-2">
            <feGaussianBlur stdDeviation="4" in="SourceAlpha" result="shadowBlurInner1"></feGaussianBlur>
            <feOffset dx="0" dy="-4" in="shadowBlurInner1" result="shadowOffsetInner1"></feOffset>
            <feComposite in="shadowOffsetInner1" in2="SourceAlpha" operator="arithmetic" k2="-1" k3="1" result="shadowInnerInner1"></feComposite>
            <feColorMatrix values="0 0 0 0 0   0 0 0 0 0   0 0 0 0 0  0 0 0 0.402015953 0" type="matrix" in="shadowInnerInner1" result="shadowMatrixInner1"></feColorMatrix>
            <feGaussianBlur stdDeviation="4" in="SourceAlpha" result="shadowBlurInner2"></feGaussianBlur>
            <feOffset dx="0" dy="4" in="shadowBlurInner2" result="shadowOffsetInner2"></feOffset>
            <feComposite in="shadowOffsetInner2" in2="SourceAlpha" operator="arithmetic" k2="-1" k3="1" result="shadowInnerInner2"></feComposite>
            <feColorMatrix values="0 0 0 0 0   0 0 0 0 0   0 0 0 0 0  0 0 0 0.200666521 0" type="matrix" in="shadowInnerInner2" result="shadowMatrixInner2"></feColorMatrix>
            <feMerge>
                <feMergeNode in="shadowMatrixInner1"></feMergeNode>
                <feMergeNode in="shadowMatrixInner2"></feMergeNode>
            </feMerge>
        </filter>
        <linearGradient x1="100%" y1="50%" x2="0%" y2="50%" id="linearGradient-3">
            <stop stop-color="#5BA2FF" offset="0%"></stop>
            <stop stop-color="#77CCFF" stop-opacity="0" offset="100%"></stop>
        </linearGradient>
    </defs>
    <g id="页面-1" stroke="none" stroke-width="1" fill="none" fill-rule="evenodd">
        <g id="农夫山泉大屏新版" transform="translate(-535.000000, -66.000000)">
            <g id="时间区域块" transform="translate(535.000000, 66.214565)">
                <g id="矩形">
                    <use fill-opacity="0.435342002" fill="#000E26" fill-rule="evenodd" xlink:href="#path-1"></use>
                    <use fill="black" fill-opacity="1" filter="url(#filter-2)" xlink:href="#path-1"></use>
                </g>
                <path d="M41.1518961,9.7854354 C41.9857653,9.7854354 42.2496485,10.2331507 41.7412958,10.7854354 L35.2981185,17.7854354 C34.7897659,18.3377202 33.7016802,18.7854354 32.867811,18.7854354 L29.8481039,18.7854354 C29.0142347,18.7854354 28.7503515,18.3377202 29.2587042,17.7854354 L35.7018815,10.7854354 C36.2102341,10.2331507 37.2983198,9.7854354 38.132189,9.7854354 L41.1518961,9.7854354 Z M52.1518961,9.7854354 C52.9857653,9.7854354 53.2496485,10.2331507 52.7412958,10.7854354 L46.2981185,17.7854354 C45.7897659,18.3377202 44.7016802,18.7854354 43.867811,18.7854354 L40.8481039,18.7854354 C40.0142347,18.7854354 39.7503515,18.3377202 40.2587042,17.7854354 L46.7018815,10.7854354 C47.2102341,10.2331507 48.2983198,9.7854354 49.132189,9.7854354 L52.1518961,9.7854354 Z M63.1518961,9.7854354 C63.9857653,9.7854354 64.2496485,10.2331507 63.7412958,10.7854354 L57.2981185,17.7854354 C56.7897659,18.3377202 55.7016802,18.7854354 54.867811,18.7854354 L51.8481039,18.7854354 C51.0142347,18.7854354 50.7503515,18.3377202 51.2587042,17.7854354 L57.7018815,10.7854354 C58.2102341,10.2331507 59.2983198,9.7854354 60.132189,9.7854354 L63.1518961,9.7854354 Z M74.1518961,9.7854354 C74.9857653,9.7854354 75.2496485,10.2331507 74.7412958,10.7854354 L68.2981185,17.7854354 C67.7897659,18.3377202 66.7016802,18.7854354 65.867811,18.7854354 L62.8481039,18.7854354 C62.0142347,18.7854354 61.7503515,18.3377202 62.2587042,17.7854354 L68.7018815,10.7854354 C69.2102341,10.2331507 70.2983198,9.7854354 71.132189,9.7854354 L74.1518961,9.7854354 Z M86.1518961,9.7854354 C86.9857653,9.7854354 87.2496485,10.2331507 86.7412958,10.7854354 L80.2981185,17.7854354 C79.7897659,18.3377202 78.7016802,18.7854354 77.867811,18.7854354 L74.8481039,18.7854354 C74.0142347,18.7854354 73.7503515,18.3377202 74.2587042,17.7854354 L80.7018815,10.7854354 C81.2102341,10.2331507 82.2983198,9.7854354 83.132189,9.7854354 L86.1518961,9.7854354 Z M96.1518961,9.7854354 C96.9857653,9.7854354 97.2496485,10.2331507 96.7412958,10.7854354 L90.2981185,17.7854354 C89.7897659,18.3377202 88.7016802,18.7854354 87.867811,18.7854354 L84.8481039,18.7854354 C84.0142347,18.7854354 83.7503515,18.3377202 84.2587042,17.7854354 L90.7018815,10.7854354 C91.2102341,10.2331507 92.2983198,9.7854354 93.132189,9.7854354 L96.1518961,9.7854354 Z M107.151896,9.7854354 C107.985765,9.7854354 108.249648,10.2331507 107.741296,10.7854354 L101.298119,17.7854354 C100.789766,18.3377202 99.7016802,18.7854354 98.867811,18.7854354 L95.8481039,18.7854354 C95.0142347,18.7854354 94.7503515,18.3377202 95.2587042,17.7854354 L101.701881,10.7854354 C102.210234,10.2331507 103.29832,9.7854354 104.132189,9.7854354 L107.151896,9.7854354 Z M118.151896,9.7854354 C118.985765,9.7854354 119.249648,10.2331507 118.741296,10.7854354 L112.298119,17.7854354 C111.789766,18.3377202 110.70168,18.7854354 109.867811,18.7854354 L106.848104,18.7854354 C106.014235,18.7854354 105.750352,18.3377202 106.258704,17.7854354 L112.701881,10.7854354 C113.210234,10.2331507 114.29832,9.7854354 115.132189,9.7854354 L118.151896,9.7854354 Z" id="形状结合" fill="url(#linearGradient-3)" transform="translate(74.000000, 14.285435) scale(1, -1) translate(-74.000000, -14.285435) "></path>
                <path d="M733.151896,9.7854354 C733.985765,9.7854354 734.249648,10.2331507 733.741296,10.7854354 L727.298119,17.7854354 C726.789766,18.3377202 725.70168,18.7854354 724.867811,18.7854354 L721.848104,18.7854354 C721.014235,18.7854354 720.750352,18.3377202 721.258704,17.7854354 L727.701881,10.7854354 C728.210234,10.2331507 729.29832,9.7854354 730.132189,9.7854354 L733.151896,9.7854354 Z M744.151896,9.7854354 C744.985765,9.7854354 745.249648,10.2331507 744.741296,10.7854354 L738.298119,17.7854354 C737.789766,18.3377202 736.70168,18.7854354 735.867811,18.7854354 L732.848104,18.7854354 C732.014235,18.7854354 731.750352,18.3377202 732.258704,17.7854354 L738.701881,10.7854354 C739.210234,10.2331507 740.29832,9.7854354 741.132189,9.7854354 L744.151896,9.7854354 Z M755.151896,9.7854354 C755.985765,9.7854354 756.249648,10.2331507 755.741296,10.7854354 L749.298119,17.7854354 C748.789766,18.3377202 747.70168,18.7854354 746.867811,18.7854354 L743.848104,18.7854354 C743.014235,18.7854354 742.750352,18.3377202 743.258704,17.7854354 L749.701881,10.7854354 C750.210234,10.2331507 751.29832,9.7854354 752.132189,9.7854354 L755.151896,9.7854354 Z M766.151896,9.7854354 C766.985765,9.7854354 767.249648,10.2331507 766.741296,10.7854354 L760.298119,17.7854354 C759.789766,18.3377202 758.70168,18.7854354 757.867811,18.7854354 L754.848104,18.7854354 C754.014235,18.7854354 753.750352,18.3377202 754.258704,17.7854354 L760.701881,10.7854354 C761.210234,10.2331507 762.29832,9.7854354 763.132189,9.7854354 L766.151896,9.7854354 Z M777.151896,9.7854354 C777.985765,9.7854354 778.249648,10.2331507 777.741296,10.7854354 L771.298119,17.7854354 C770.789766,18.3377202 769.70168,18.7854354 768.867811,18.7854354 L765.848104,18.7854354 C765.014235,18.7854354 764.750352,18.3377202 765.258704,17.7854354 L771.701881,10.7854354 C772.210234,10.2331507 773.29832,9.7854354 774.132189,9.7854354 L777.151896,9.7854354 Z M788.151896,9.7854354 C788.985765,9.7854354 789.249648,10.2331507 788.741296,10.7854354 L782.298119,17.7854354 C781.789766,18.3377202 780.70168,18.7854354 779.867811,18.7854354 L776.848104,18.7854354 C776.014235,18.7854354 775.750352,18.3377202 776.258704,17.7854354 L782.701881,10.7854354 C783.210234,10.2331507 784.29832,9.7854354 785.132189,9.7854354 L788.151896,9.7854354 Z M799.151896,9.7854354 C799.985765,9.7854354 800.249648,10.2331507 799.741296,10.7854354 L793.298119,17.7854354 C792.789766,18.3377202 791.70168,18.7854354 790.867811,18.7854354 L787.848104,18.7854354 C787.014235,18.7854354 786.750352,18.3377202 787.258704,17.7854354 L793.701881,10.7854354 C794.210234,10.2331507 795.29832,9.7854354 796.132189,9.7854354 L799.151896,9.7854354 Z M810.151896,9.7854354 C810.985765,9.7854354 811.249648,10.2331507 810.741296,10.7854354 L804.298119,17.7854354 C803.789766,18.3377202 802.70168,18.7854354 801.867811,18.7854354 L798.848104,18.7854354 C798.014235,18.7854354 797.750352,18.3377202 798.258704,17.7854354 L804.701881,10.7854354 C805.210234,10.2331507 806.29832,9.7854354 807.132189,9.7854354 L810.151896,9.7854354 Z" id="形状结合" fill="url(#linearGradient-3)" transform="translate(766.000000, 14.285435) scale(-1, -1) translate(-766.000000, -14.285435) "></path>
            </g>
        </g>
    </g>
</svg>