<?xml version="1.0" encoding="UTF-8"?>
<svg width="785px" height="152px" version="1.1" xmlns="http://www.w3.org/2000/svg" xmlns:xlink="http://www.w3.org/1999/xlink">
    <title>中间模块底图</title>
    <g id="页面-1" stroke="none" stroke-width="1" fill="none" fill-rule="evenodd">
        <g id="农夫山泉大屏新版" transform="translate(-571.000000, -773.000000)">
            <g id="中间模块底图" transform="translate(571.000000, 773.000000)">
                <path d="M392.5,147.25 L392.5,152 L20.8776596,152 L20.8776596,147.25 L16.7021277,147.25 L16.7021277,142.5 L20.8776596,142.5 L20.8776596,9.5 L16.7021277,9.5 L16.7021277,4.75 L20.8776596,4.75 L20.8776596,0 L392.5,0 L392.5,4.75 L25.0531915,4.75 L25.0531915,147.25 L392.5,147.25 Z M12.5265957,14.25 L12.5265957,9.5 L16.7021277,9.5 L16.7021277,14.25 L12.5265957,14.25 Z M8.35106383,19 L8.35106383,14.25 L12.5265957,14.25 L12.5265957,19 L8.35106383,19 Z M4.17553191,23.75 L4.17553191,19 L8.35106383,19 L8.35106383,23.75 L4.17553191,23.75 Z M8.35106383,38 L8.35106383,114 L4.17553191,114 L4.17553191,128.25 L0,128.25 L0,23.75 L4.17553191,23.75 L4.17553191,38 L8.35106383,38 Z M8.35106383,133 L4.17553191,133 L4.17553191,128.25 L8.35106383,128.25 L8.35106383,133 Z M12.5265957,137.75 L8.35106383,137.75 L8.35106383,133 L12.5265957,133 L12.5265957,137.75 Z M16.7021277,142.5 L12.5265957,142.5 L12.5265957,137.75 L16.7021277,137.75 L16.7021277,142.5 Z M392.5,147.25 L392.5,152 L764.12234,152 L764.12234,147.25 L768.297872,147.25 L768.297872,142.5 L764.12234,142.5 L764.12234,9.5 L768.297872,9.5 L768.297872,4.75 L764.12234,4.75 L764.12234,0 L392.5,0 L392.5,4.75 L759.946809,4.75 L759.946809,147.25 L392.5,147.25 Z M772.473404,14.25 L772.473404,9.5 L768.297872,9.5 L768.297872,14.25 L772.473404,14.25 Z M776.648936,19 L776.648936,14.25 L772.473404,14.25 L772.473404,19 L776.648936,19 Z M780.824468,23.75 L780.824468,19 L776.648936,19 L776.648936,23.75 L780.824468,23.75 Z M776.648936,38 L776.648936,114 L780.824468,114 L780.824468,128.25 L785,128.25 L785,23.75 L780.824468,23.75 L780.824468,38 L776.648936,38 Z M776.648936,133 L780.824468,133 L780.824468,128.25 L776.648936,128.25 L776.648936,133 Z M772.473404,137.75 L776.648936,137.75 L776.648936,133 L772.473404,133 L772.473404,137.75 Z M768.297872,142.5 L772.473404,142.5 L772.473404,137.75 L768.297872,137.75 L768.297872,142.5 Z" id="矩形_5" fill="#7AD8FF"></path>
                <rect id="矩形_7" fill="#091D39" fill-rule="nonzero" x="26" y="5" width="735" height="143"></rect>
            </g>
        </g>
    </g>
</svg>