<?xml version="1.0" encoding="UTF-8"?>
<svg width="153px" height="116px" version="1.1" xmlns="http://www.w3.org/2000/svg" xmlns:xlink="http://www.w3.org/1999/xlink">
    <title>类型底座</title>
    <defs>
        <linearGradient x1="0%" y1="50%" x2="100%" y2="50%" id="linearGradient-1">
            <stop stop-color="#03A9FA" offset="0%"></stop>
            <stop stop-color="#5AE9FF" offset="53.7095717%"></stop>
            <stop stop-color="#03A9FA" offset="99.9644886%"></stop>
        </linearGradient>
        <linearGradient x1="50%" y1="8.21237872%" x2="50%" y2="100%" id="linearGradient-2">
            <stop stop-color="#18E8F7" stop-opacity="0" offset="0.0218531469%"></stop>
            <stop stop-color="#15E1F4" stop-opacity="0.144613199" offset="36.3417832%"></stop>
            <stop stop-color="#11D6F1" stop-opacity="0.215007649" offset="57.4054851%"></stop>
            <stop stop-color="#0ED5EE" stop-opacity="0.322579764" offset="72.3011364%"></stop>
            <stop stop-color="#0ACDEB" stop-opacity="0.924442745" offset="100%"></stop>
        </linearGradient>
        <path d="M14.4712947,6.33879626 C27.4419193,2.34833851 35.4369673,0.35310964 38.4564388,0.35310964 C41.4759103,0.35310964 48.2069032,2.00046583 58.6494177,5.29517822 C68.1420089,7.88675659 73.6369408,10.2744734 75.1342136,12.4583288 C76.6314864,14.6421841 76.6314864,21.9327751 75.1342136,34.3301018 C74.4587095,49.4427249 72.9012541,59.205462 70.4618474,63.6183133 C66.8027374,70.2375902 55.1413236,77.0111196 52.4359177,79.0909813 C49.7305119,81.170843 41.2983942,87.8485317 38.4564388,87.8485317 C35.6144834,87.8485317 28.4842296,82.6165695 26.1537795,80.9703301 C23.8233294,79.3240907 11.1529919,72.7886514 6.24835713,64.8644422 C2.97860059,59.5816361 1.29957035,51.1169997 1.21126642,39.470533 C-0.361448696,22.2706437 -0.361448696,12.964701 1.21126642,11.5527048 C2.78398154,10.1407087 7.20399097,8.40273913 14.4712947,6.33879626 Z" id="path-3"></path>
        <linearGradient x1="47.3023692%" y1="13.3284177%" x2="58.258274%" y2="101.591065%" id="linearGradient-5">
            <stop stop-color="#001431" offset="0%"></stop>
            <stop stop-color="#1A5689" offset="100%"></stop>
        </linearGradient>
        <linearGradient x1="41.741726%" y1="18.783039%" x2="50%" y2="100%" id="linearGradient-6">
            <stop stop-color="#001431" offset="0%"></stop>
            <stop stop-color="#1A5689" offset="100%"></stop>
        </linearGradient>
    </defs>
    <g id="页面-1" stroke="none" stroke-width="1" fill="none" fill-rule="evenodd">
        <g id="农夫山泉大屏新版" transform="translate(-884.000000, -232.000000)">
            <g id="类型底座" transform="translate(884.000000, 232.000000)">
                <g id="编组-33" transform="translate(0.000000, 1.000000)">
                    <ellipse id="椭圆形" stroke="url(#linearGradient-1)" stroke-width="2" cx="77" cy="105.5" rx="41" ry="8.5"></ellipse>
                    <ellipse id="椭圆形" fill="#032553" cx="76.5" cy="106" rx="40.5" ry="8"></ellipse>
                    <path d="M8.23178787,22.6803684 L36.2502889,102.564549 C43.6515333,108.747023 57.404248,111.531073 77.508433,110.916699 C97.612618,110.302325 111.332494,107.25379 118.668061,101.771095 L144.881698,22.6803684 L153,0 C125.664629,7.1186765 99.545468,10.6780148 74.6425161,10.6780148 C49.7395642,10.6780148 24.8587255,7.1186765 0,0 L8.23178787,22.6803684 Z" id="路径-7" fill="url(#linearGradient-2)"></path>
                </g>
                <g id="编组-5" transform="translate(33.000000, 0.000000)">
                    <path d="M20.4945596,6.66716564 C33.3930723,2.22238855 41.3750197,0 44.4404016,0 C47.5057835,0 57.2599456,2.93842769 73.702888,8.81528307 C80.7489908,10.2613128 85.0320614,12.0799292 86.5520999,14.2711321 C88.0721384,16.4623349 88.3953486,25.4094188 87.5217306,41.1123837 C86.3764668,57.8462482 84.5655862,68.4270296 82.0890888,72.8547279 C78.3743427,79.4962753 65.8911222,87.7305698 63.1445812,89.8174291 C60.3980402,91.9042885 47.3255683,101 44.4404016,101 C41.5552348,101 30.1372723,93.1209854 27.7713882,91.4692073 C25.4055041,89.8174291 8.54792595,80.8375935 5.68166693,71.9987767 C3.77082759,66.1062321 2.27609559,56.6027686 1.19747095,43.4883862 C-0.399156982,24.9056087 -0.399156982,14.9058465 1.19747095,13.4890997 C2.79409888,12.0723529 9.22646175,9.79837484 20.4945596,6.66716564 Z" id="路径-8" fill="#A9ECFC"></path>
                    <g id="矩形" transform="translate(6.000000, 7.000000)">
                        <mask id="mask-4" fill="white">
                            <use xlink:href="#path-3"></use>
                        </mask>
                        <use id="蒙版" fill="#D8D8D8" xlink:href="#path-3"></use>
                        <rect fill="url(#linearGradient-5)" mask="url(#mask-4)" x="-15.1768116" y="-26.7185013" width="53.1188406" height="130.70402"></rect>
                        <rect fill="url(#linearGradient-6)" mask="url(#mask-4)" x="37.942029" y="-26.7185013" width="53.1188406" height="130.70402"></rect>
                    </g>
                </g>
            </g>
        </g>
    </g>
</svg>