<?xml version="1.0" encoding="UTF-8"?>
<svg width="113px" height="38px" version="1.1" xmlns="http://www.w3.org/2000/svg" xmlns:xlink="http://www.w3.org/1999/xlink">
    <title>类型小标题底块</title>
    <g id="页面-1" stroke="none" stroke-width="1" fill="none" fill-rule="evenodd">
        <g id="农夫山泉大屏新版" transform="translate(-744.000000, -304.000000)">
            <g id="类型小标题底块" transform="translate(745.000000, 305.000000)">
                <path d="M97.7212604,2.5 L107.410369,18.1742398 L97.7245134,33.5 L12.2760291,33.5 L2.5896271,18.1167571 L12.2782089,2.5 L97.7212604,2.5 Z" id="矩形" stroke="#7DC4FF" fill-opacity="0.52182583" fill="#1D398E"></path>
                <path d="M107.295213,12.9811345 L110.520861,18.1993212 L107.394851,23.1455522 M102.322283,31.1717886 L99.2708612,36 L92.2773412,36 M68.2019526,36 L55.2196043,36 L42.2029036,36 M18.1912824,36 L11.25,36 L8.1381841,31.0580391 M3.13724184,23.1159045 L-5.68434189e-14,18.133564 L3.21175767,12.9566206 M8.15915636,4.98204541 L11.25,0 L18.2263203,0 M92.2418294,0 L99.2708612,0 L102.343903,4.97131378" id="形状" stroke="#26DFFF"></path>
            </g>
        </g>
    </g>
</svg>