<?xml version="1.0" encoding="UTF-8"?>
<svg width="20px" height="21px" version="1.1" xmlns="http://www.w3.org/2000/svg" xmlns:xlink="http://www.w3.org/1999/xlink">
    <title>坐标</title>
    <defs>
        <filter x="0.0%" y="0.0%" width="100.0%" height="100.0%" filterUnits="objectBoundingBox" id="filter-1">
            <feGaussianBlur stdDeviation="0 0" in="SourceGraphic"></feGaussianBlur>
        </filter>
    </defs>
    <g id="页面-1" stroke="none" stroke-width="1" fill="none" fill-rule="evenodd">
        <g id="3534634" transform="translate(-1751.000000, -849.000000)">
            <g id="编组-35" transform="translate(1751.000000, 849.000000)">
                <ellipse id="椭圆形" fill="#4CBCFC" opacity="0.295061384" cx="10" cy="18" rx="10" ry="3"></ellipse>
                <ellipse id="椭圆形" fill="#4CBCFC" opacity="0.498023624" filter="url(#filter-1)" cx="10" cy="17" rx="7" ry="2"></ellipse>
                <g id="定位-(3)" transform="translate(2.000000, 0.000000)" fill-rule="nonzero">
                    <path d="M15.001875,7.498125 C15.00375,9.031875 14.548125,10.45875 13.7625,11.649375 C12.725625,13.21875 9.555,15.684375 8.165625,16.726875 C7.771875,17.02125 7.231875,17.02125 6.838125,16.725 C5.47875,15.703125 2.416875,13.321875 1.3725,11.8425 C0.508125,10.618125 0.001875,9.125625 0.001875,7.513125 C0.001875,3.365625 3.36,0.00187421213 7.501875,0.00187421213 C11.649375,-1.46410661e-15 14.994375,3.345 15.001875,7.498125 Z" id="路径" fill="#37AFFA"></path>
                    <path d="M5.589375,15.763125 C6.07125,16.14375 6.50625,16.47375 6.838125,16.725 C7.231875,17.02125 7.771875,17.02125 8.165625,16.726875 C8.58,16.415625 9.15375,15.97875 9.781875,15.47625 C8.96625,15.766875 8.086875,15.92625 7.171875,15.92625 C6.628125,15.924375 6.099375,15.87 5.589375,15.763125 L5.589375,15.763125 Z M7.501875,0 C5.50875,0 3.695625,0.78 2.353125,2.049375 C3.676875,1.00125 5.35125,0.376875 7.171875,0.376875 C11.465625,0.376875 14.945625,3.856875 14.945625,8.150625 C14.945625,8.270625 14.941875,8.390625 14.938125,8.50875 C14.98125,8.17875 15.00375,7.84125 15.00375,7.498125 C14.994375,3.345 11.649375,0 7.501875,0 Z" id="形状" fill="#37AFFA"></path>
                    <path d="M7.17,0.37875 C5.349375,0.37875 3.676875,1.005 2.35125,2.05125 C0.90375,3.42 0,5.360625 0,7.51125 C0,9.12375 0.508125,10.618125 1.370625,11.840625 C2.16,12.958125 4.09875,14.589375 5.5875,15.763125 C6.0975,15.868125 6.628125,15.924375 7.17,15.924375 C8.085,15.924375 8.964375,15.765 9.78,15.474375 C11.255625,14.293125 13.033125,12.75 13.760625,11.6475 C14.37,10.723125 14.7825,9.65625 14.934375,8.506875 C14.94,8.38875 14.9418758,8.26875 14.9418758,8.14875 C14.94375,3.85875 11.46375,0.37875 7.17,0.37875 Z M6.84,14.49375 C3.135,14.49375 0.13125,11.49 0.13125,7.785 C0.13125,4.08 3.135,1.07625 6.84,1.07625 C10.545,1.07625 13.54875,4.08 13.54875,7.785 C13.54875,11.49 10.545,14.49375 6.84,14.49375 Z" id="形状" fill="#41B6FB"></path>
                    <path d="M6.84,1.078125 C3.135,1.078125 0.13125,4.081875 0.13125,7.785 C0.13125,11.488125 3.135,14.49375 6.84,14.49375 C10.545,14.49375 13.54875,11.49 13.54875,7.785 C13.54875,4.08 10.545,1.078125 6.84,1.078125 Z M6.508125,13.063125 C3.391875,13.063125 0.864375,10.5375 0.864375,7.419375 C0.864375,4.30125 3.39,1.775625 6.508125,1.775625 C9.62625,1.775625 12.151875,4.30125 12.151875,7.419375 C12.151875,10.5375 9.62625,13.063125 6.508125,13.063125 Z" id="形状" fill="#4CBCFC"></path>
                    <path d="M6.508125,1.7775 C3.391875,1.7775 0.864375,4.303125 0.864375,7.42125 C0.864375,10.539375 3.39,13.065 6.508125,13.065 C9.62625,13.065 12.151875,10.539375 12.151875,7.42125 C12.151875,4.303125 9.62625,1.7775 6.508125,1.7775 Z M6.178125,11.6325 C3.650625,11.6325 1.599375,9.583125 1.599375,7.05375 C1.599375,4.524375 3.64875,2.475 6.178125,2.475 C8.7075,2.475 10.756875,4.524375 10.756875,7.05375 C10.756875,9.583125 8.705625,11.6325 6.178125,11.6325 L6.178125,11.6325 Z" id="形状" fill="#56C3FD"></path>
                    <path d="M6.178125,2.476875 C3.650625,2.476875 1.599375,4.52625 1.599375,7.055625 C1.599375,9.585 3.64875,11.634375 6.178125,11.634375 C8.7075,11.634375 10.756875,9.585 10.756875,7.055625 C10.756875,4.52625 8.705625,2.476875 6.178125,2.476875 Z M5.84625,10.201875 C3.905625,10.201875 2.334375,8.62875 2.334375,6.69 C2.334375,4.75125 3.9075,3.17625 5.84625,3.17625 C7.785,3.17625 9.358125,4.749375 9.358125,6.688125 C9.358125,8.626875 7.786875,10.201875 5.84625,10.201875 Z" id="形状" fill="#60C9FD"></path>
                    <path d="M5.84625,3.17625 C3.905625,3.17625 2.334375,4.749375 2.334375,6.688125 C2.334375,8.626875 3.9075,10.2 5.84625,10.2 C7.785,10.2 9.358125,8.626875 9.358125,6.688125 C9.358125,4.749375 7.786875,3.17625 5.84625,3.17625 Z M5.51625,8.77125 C4.164375,8.77125 3.069375,7.67625 3.069375,6.324375 C3.069375,4.9725 4.164375,3.8775 5.51625,3.8775 C6.868125,3.8775 7.963125,4.9725 7.963125,6.324375 C7.963125,7.67625 6.868125,8.77125 5.51625,8.77125 L5.51625,8.77125 Z" id="形状" fill="#6BCFFE"></path>
                    <path d="M3.069375,6.324375 C3.069375,7.67574675 4.16487825,8.77125 5.51625,8.77125 C6.86762175,8.77125 7.963125,7.67574675 7.963125,6.324375 C7.963125,4.97300325 6.86762175,3.8775 5.51625,3.8775 C4.16487825,3.8775 3.069375,4.97300325 3.069375,6.324375 L3.069375,6.324375 Z" id="路径" fill="#75D6FF"></path>
                    <path d="M7.501875,0.3375 C8.47125,0.3375 9.40875,0.526875 10.291875,0.898125 C11.145,1.258125 11.91,1.77375 12.56625,2.43 C13.2225,3.08625 13.74,3.853125 14.1,4.70625 C14.473125,5.589375 14.6625,6.52875 14.6643814,7.498125 C14.66625,8.915625 14.2575,10.28625 13.48125,11.461875 C12.46875,12.995625 9.285,15.465 7.965,16.455 C7.831875,16.55625 7.6725,16.60875 7.50375,16.60875 C7.335,16.60875 7.175625,16.55625 7.040625,16.455 C5.76,15.493125 2.671875,13.09875 1.648125,11.6475 C0.79125,10.434375 0.339375,9.00375 0.339375,7.51125 C0.339375,6.541875 0.52875,5.6025 0.901875,4.719375 C1.261875,3.864375 1.779375,3.0975 2.4375,2.439375 C3.095625,1.78125 3.860625,1.26375 4.71375,0.901875 C5.596875,0.52875 6.534375,0.3375 7.501875,0.3375 M7.501875,0 C3.36,0 0.001875,3.361875 0.001875,7.51125 C0.001875,9.12375 0.51,10.618125 1.3725,11.840625 C2.416875,13.32 5.47875,15.70125 6.838125,16.723125 C7.035,16.87125 7.269375,16.94625 7.50375,16.94625 C7.73625,16.94625 7.970625,16.873125 8.165625,16.725 C9.555,15.684375 12.725625,13.21875 13.7625,11.649375 C14.548125,10.45875 15.005625,9.031875 15.0018979,7.498125 C14.994375,3.345 11.649375,0 7.501875,0 Z" id="形状" fill="#37AFFA"></path>
                    <path d="M7.501875,3.890625 C9.48375,3.890625 11.08875,5.495625 11.08875,7.4775 C11.08875,9.459375 9.481875,11.064375 7.501875,11.064375 C5.52,11.064375 3.915,9.4575 3.915,7.4775 C3.915,5.4975 5.52,3.890625 7.501875,3.890625 L7.501875,3.890625 Z" id="路径" fill="#B9E8FF"></path>
                    <path d="M2.619375,3.77625 C2.544375,3.77625 2.4675,3.751875 2.405625,3.699375 C2.26125,3.58125 2.240625,3.369375 2.35875,3.225 C3.25875,2.12625 4.32,1.57875 4.363125,1.55625 C4.53,1.471875 4.7325,1.5375 4.816875,1.704375 C4.90125,1.869375 4.835625,2.07375 4.670625,2.158125 C4.66125,2.16375 3.68625,2.67 2.88,3.654375 C2.8125,3.733125 2.716875,3.77625 2.619375,3.77625 L2.619375,3.77625 Z M1.86375,4.87875 C1.80375,4.87875 1.741875,4.861875 1.6875,4.828125 C1.528125,4.730625 1.479375,4.5225 1.576875,4.363125 L1.6875,4.183125 C1.785,4.02375 1.993125,3.975 2.1525,4.0725 C2.311875,4.17 2.360625,4.378125 2.263125,4.5375 L2.1525,4.7175 C2.08875,4.820625 1.97625,4.87875 1.86375,4.87875 L1.86375,4.87875 Z" id="形状" fill="#FFFFFF"></path>
                </g>
            </g>
        </g>
    </g>
</svg>