<?xml version="1.0" encoding="UTF-8"?>
<svg width="498px" height="320px" version="1.1" xmlns="http://www.w3.org/2000/svg" xmlns:xlink="http://www.w3.org/1999/xlink">
    <title>模块底图</title>
    <g id="页面-1" stroke="none" stroke-width="1" fill="none" fill-rule="evenodd">
        <g id="3534634" transform="translate(-13.000000, -402.000000)">
            <g id="模块底图" transform="translate(6.700000, 400.000000)">
                <g id="编组" transform="translate(7.707447, 3.236598)" fill="#142044" fill-opacity="0.498688811" fill-rule="nonzero" stroke="#000000">
                    <polygon id="矩形_1" points="8.0847766 0 487.921596 0 495.957447 7.95041237 495.957447 312.041237 369.287234 312.041237 362.585106 318.680412 134.042553 318.680412 127.340426 312.041237 0 312.041237 0 7.96701031"></polygon>
                </g>
                <g id="矩形_1-link" transform="translate(7.707447, 3.236598)" stroke="#000000">
                    <polygon id="矩形_1" points="8.0847766 0 487.921596 0 495.957447 7.95041237 495.957447 312.041237 369.287234 312.041237 362.585106 318.680412 134.042553 318.680412 127.340426 312.041237 0 312.041237 0 7.96701031"></polygon>
                </g>
                <path d="M16.433617,3.23659794 L495.635745,3.23659794 L502.994681,11.2082557 L502.994681,19.1706186 L419.472766,19.1706186 C398.749787,19.0869649 390.023617,17.4517361 384.367021,21.8262887 C378.710426,26.2008412 378.596489,27.9456165 373.898298,37.2583876 C368.583511,47.7881196 367.584894,51.5790887 360.239362,55.6860825 C351.700851,60.3288577 347.927553,59.0541361 325.877553,59.0999464 C284.920851,59.1849278 219.607947,59.2619423 180.690702,59.0056701 C166.424553,58.9113938 155.315777,60.1157402 149.123681,56.35 C143.130638,52.7064206 141.679628,45.5852412 135.995553,34.3238722 C136.659734,35.6390928 130.767894,23.2450804 127.676872,21.1623711 C124.051691,18.7198186 111.912128,19.288132 108.252766,19.1706186 L8.37765957,19.1706186 L8.37765957,11.2474268 L16.433617,3.23659794 Z" id="矩形_4" stroke="#4D79FF" fill-opacity="0.5" fill="#1B66CC" opacity="0.846679688"></path>
                <polygon id="形状_1" stroke="#4D79FF" fill="#12318E" opacity="0" points="25.1329787 0.580927835 25.1329787 1.24484536 14.4095745 1.24484536 14.4095745 0.580927835"></polygon>
                <polygon id="形状_2" stroke="#4D79FF" fill="#12318E" opacity="0" points="14.8512447 0.337934021 15.3083298 0.823921649 5.2551383 10.118767 4.79805319 9.63277938"></polygon>
                <polygon id="形状_3" stroke="#4D79FF" fill="#12318E" opacity="0" points="5.02659574 9.8757732 5.69680851 9.8757732 5.69680851 62.9891753 5.02659574 62.9891753"></polygon>
                <polygon id="形状_3_拷贝" stroke="#4D79FF" fill="#12318E" opacity="0" points="1.67553191 31.7850515 2.34574468 31.7850515 2.34574468 74.9396907 1.67553191 74.9396907"></polygon>
                <ellipse id="椭圆_1" stroke="#4D79FF" fill="#12318E" fill-rule="nonzero" opacity="0" cx="2.0106383" cy="76.5994845" rx="1.67553191" ry="1.65979381"></ellipse>
                <polygon id="形状_4" stroke="#4D79FF" fill="#12318E" opacity="0" points="4.85435106 62.6100784 5.19884043 62.0404371 8.54990426 64.0321897 8.20541489 64.6018309"></polygon>
                <polygon id="形状_4_拷贝" stroke="#4D79FF" fill="#12318E" opacity="0" points="5.03128723 29.7229237 4.71762766 29.1353567 1.67084043 31.193501 1.9845 31.781068"></polygon>
                <polygon id="矩形_2" fill="#4C568C" opacity="0.401460193" points="7.70744681 317.269588 133.707447 317.269588 138.398936 321.91701 7.70744681 321.91701"></polygon>
                <polygon id="矩形_2_拷贝" fill="#4C568C" opacity="0.401460193" points="503.664894 317.269588 377.664894 317.269588 372.973404 321.91701 503.664894 321.91701"></polygon>
                <polygon id="多边形_1" stroke="#4D79FF" fill="#4D79FF" points="503.664894 7.88402062 498.973404 3.23659794 503.664894 3.23659794"></polygon>
                <polygon id="多边形_1" stroke="#4D79FF" fill="#4D79FF" transform="translate(10.319149, 5.560309) rotate(-90.000000) translate(-10.319149, -5.560309) " points="12.6648936 7.88402062 7.97340426 3.23659794 12.6648936 3.23659794"></polygon>
            </g>
        </g>
    </g>
</svg>