<?xml version="1.0" encoding="UTF-8"?>
<svg width="14px" height="13px" version="1.1" xmlns="http://www.w3.org/2000/svg" xmlns:xlink="http://www.w3.org/1999/xlink">
    <title>日期图标</title>
    <g id="页面-1" stroke="none" stroke-width="1" fill="none" fill-rule="evenodd">
        <g id="农夫山泉大屏" transform="translate(-477.000000, -441.000000)" fill="#FFFFFF" fill-rule="nonzero">
            <g id="编组-15" transform="translate(411.000000, 435.000000)">
                <g id="日期图标" transform="translate(66.000000, 6.000000)">
                    <path d="M1.667375,1.172 C1.211375,1.172 0.835375,1.54 0.835375,2.004 L0.835375,11.148 C0.835375,11.604 1.203375,11.98 1.667375,11.98 L11.643375,11.98 C12.099375,11.98 12.475375,11.604 12.475375,11.148 L12.475375,1.996 C12.475375,1.54 12.099375,1.164 11.643375,1.164 L1.667375,1.172 Z M1.667375,0.34 L11.643375,0.34 C12.563375,0.34 13.307375,1.084 13.307375,2.004 L13.307375,11.148 C13.307375,12.068 12.563375,12.812 11.643375,12.812 L1.667375,12.812 C0.747375,12.812 0.003375,12.068 0.003375,11.148 L0.003375,1.996 C0.003375,1.084 0.747375,0.34 1.667375,0.34 Z" id="形状"></path>
                    <path d="M3.331375,7.076 C3.563375,7.076 3.747375,7.26 3.747375,7.492 C3.747375,7.724 3.563375,7.908 3.331375,7.908 L1.667375,7.908 C1.435375,7.908 1.251375,7.724 1.251375,7.492 C1.251375,7.26 1.435375,7.076 1.667375,7.076 L3.331375,7.076 L3.331375,7.076 Z M7.483375,7.076 C7.715375,7.076 7.899375,7.26 7.899375,7.492 C7.899375,7.724 7.715375,7.908 7.483375,7.908 L5.827375,7.908 C5.595375,7.908 5.411375,7.724 5.411375,7.492 C5.411375,7.26 5.595375,7.076 5.827375,7.076 L7.483375,7.076 Z M11.643375,7.076 C11.875375,7.076 12.059375,7.26 12.059375,7.492 C12.059375,7.724 11.875375,7.908 11.643375,7.908 L9.979375,7.908 C9.747375,7.908 9.563375,7.724 9.563375,7.492 C9.563375,7.26 9.747375,7.076 9.979375,7.076 L11.643375,7.076 L11.643375,7.076 Z M3.331375,9.156 C3.563375,9.156 3.747375,9.34 3.747375,9.572 C3.747375,9.804 3.563375,9.988 3.331375,9.988 L1.667375,9.988 C1.435375,9.988 1.251375,9.804 1.251375,9.572 C1.251375,9.34 1.435375,9.156 1.667375,9.156 L3.331375,9.156 L3.331375,9.156 Z M7.483375,9.156 C7.715375,9.156 7.899375,9.34 7.899375,9.572 C7.899375,9.804 7.715375,9.988 7.483375,9.988 L5.827375,9.988 C5.595375,9.988 5.411375,9.804 5.411375,9.572 C5.411375,9.34 5.595375,9.156 5.827375,9.156 L7.483375,9.156 L7.483375,9.156 Z M11.643375,9.156 C11.875375,9.156 12.059375,9.34 12.059375,9.572 C12.059375,9.804 11.875375,9.988 11.643375,9.988 L9.979375,9.988 C9.747375,9.988 9.563375,9.804 9.563375,9.572 C9.563375,9.34 9.747375,9.156 9.979375,9.156 L11.643375,9.156 L11.643375,9.156 Z M12.475375,3.748 C12.707375,3.748 12.891375,3.932 12.891375,4.164 C12.891375,4.396 12.707375,4.58 12.475375,4.58 L0.835375,4.58 C0.603375,4.58 0.419375,4.396 0.419375,4.164 C0.419375,3.932 0.603375,3.748 0.835375,3.748 L12.475375,3.748 L12.475375,3.748 Z M3.747375,0.428 C3.747375,0.196 3.931375,0.012 4.163375,0.012 C4.395375,0.012 4.579375,0.196 4.579375,0.428 L4.579375,2.092 C4.579375,2.324 4.395375,2.508 4.163375,2.508 C3.931375,2.508 3.747375,2.324 3.747375,2.092 L3.747375,0.428 Z M8.731375,0.428 C8.731375,0.196 8.915375,0.012 9.147375,0.012 C9.379375,0.012 9.563375,0.196 9.563375,0.428 L9.563375,2.092 C9.563375,2.324 9.379375,2.508 9.147375,2.508 C8.915375,2.508 8.731375,2.324 8.731375,2.092 L8.731375,0.428 Z" id="形状"></path>
                </g>
            </g>
        </g>
    </g>
</svg>